HIERARCHY
ROOT Hips
{
	OFFSET 0.00000 0.00000 0.00000
	CHANNELS 6 Xposition Yposition Zposition Zrotation Yrotation Xrotation 
	JOINT LHipJoint
	{
		OFFSET 0 0 0
		CHANNELS 3 Zrotation Yrotation Xrotation
		JOINT LeftHip
		{
			OFFSET 1.29432 -1.88279 0.59910
			CHANNELS 3 Zrotation Yrotation Xrotation
			JOINT LeftKnee
			{
				OFFSET 2.63039 -7.22694 0.00000
				CHANNELS 3 Zrotation Yrotation Xrotation
				JOINT LeftAnkle
				{
					OFFSET 2.70674 -7.43672 0.00000
					CHANNELS 3 Zrotation Yrotation Xrotation
					JOINT LeftToe
					{
						OFFSET 0.15066 -0.41394 2.09027
						CHANNELS 3 Zrotation Yrotation Xrotation
						End Site
						{
							OFFSET 0.00000 -0.00000 1.07518
						}
					}
				}
			}
		}
	}
	JOINT RHipJoint
	{
		OFFSET 0 0 0
		CHANNELS 3 Zrotation Yrotation Xrotation
		JOINT RightHip
		{
			OFFSET -1.37068 -1.88279 0.59910
			CHANNELS 3 Zrotation Yrotation Xrotation
			JOINT RightKnee
			{
				OFFSET -2.57023 -7.06166 0.00000
				CHANNELS 3 Zrotation Yrotation Xrotation
				JOINT RightAnkle
				{
					OFFSET -2.76461 -7.59570 0.00000
					CHANNELS 3 Zrotation Yrotation Xrotation
					JOINT RightToe
					{
						OFFSET -0.24175 -0.64785 2.19719
						CHANNELS 3 Zrotation Yrotation Xrotation
						End Site
						{
							OFFSET -0.00000 -0.00000 1.14803
						}
					}
				}
			}
		}
	}
	JOINT lowerback
	{
		OFFSET 0 0 0
		CHANNELS 3 Zrotation Yrotation Xrotation
		JOINT Chest
		{
			OFFSET -0.03138 2.03983 -0.23106
			CHANNELS 3 Zrotation Yrotation Xrotation
			JOINT Chest2
			{
				OFFSET -0.00325 2.06238 -0.06878
				CHANNELS 3 Zrotation Yrotation Xrotation
				JOINT lowerneck
				{
					OFFSET 0 0 0
					CHANNELS 3 Zrotation Yrotation Xrotation
					JOINT Neck
					{
						OFFSET -0.00002 1.75318 0.18090
						CHANNELS 3 Zrotation Yrotation Xrotation
						JOINT Head
						{
							OFFSET 0.08806 1.75856 -0.25387
							CHANNELS 3 Zrotation Yrotation Xrotation
							End Site
							{
								OFFSET 0.02554 1.78597 -0.10684
							}
						}
					}
				}
				JOINT LeftCollar
				{
					OFFSET 0 0 0
					CHANNELS 3 Zrotation Yrotation Xrotation
					JOINT LeftShoulder
					{
						OFFSET 3.09657 1.33597 -0.04414
CHANNELS 3 Zrotation Xrotation Yrotation
						JOINT LeftElbow
						{
OFFSET 0 -5.342980 -0.000000
CHANNELS 3 Zrotation Xrotation Yrotation
							JOINT LeftWrist
							{
OFFSET 0 -3.672620 -0.000000
CHANNELS 3 Zrotation Xrotation Yrotation
								JOINT lhand
								{
									OFFSET 0 0 0
CHANNELS 3 Zrotation Xrotation Yrotation
									JOINT LFingers
									{
OFFSET 0 -0.599300 -0.000000
CHANNELS 3 Zrotation Xrotation Yrotation
										End Site
										{
OFFSET 0 -0.483170 -0.000000
										}
									}
								}
								JOINT LThumb
								{
OFFSET 0 0.000000 0.000000
CHANNELS 3 Zrotation Xrotation Yrotation
									End Site
									{
OFFSET 0 -0.490550 0.490550
									}
								}
							}
						}
					}
				}
				JOINT RightCollar
				{
					OFFSET 0 0 0
					CHANNELS 3 Zrotation Yrotation Xrotation
					JOINT RightShoulder
					{
						OFFSET -3.16460 1.32273 -0.23382
CHANNELS 3 Zrotation Xrotation Yrotation
						JOINT RightElbow
						{
OFFSET 0 -5.549670 0.033480
CHANNELS 3 Zrotation Xrotation Yrotation
							JOINT RightWrist
							{
OFFSET 0 -3.694010 0.000000
CHANNELS 3 Zrotation Xrotation Yrotation
								JOINT rhand
								{
									OFFSET 0 0 0
CHANNELS 3 Zrotation Xrotation Yrotation
									JOINT RFingers
									{
OFFSET 0 -0.638110 0.000000
CHANNELS 3 Zrotation Xrotation Yrotation
										End Site
										{
OFFSET 0 -0.514460 0.000000
										}
									}
								}
								JOINT RThumb
								{
OFFSET 0 0.000000 0.000000
CHANNELS 3 Zrotation Xrotation Yrotation
									End Site
									{
OFFSET 0 -0.522320 0.522320
									}
								}
							}
						}
					}
				}
			}
		}
	}
}
MOTION
Frames: 9
Frame Time: 0.008333333333333333
-2.438800 18.731700 23.398900 -177.459000 8.854700 -173.458000 0.000000 0.000000 0.000000 -7.273700 -10.579900 -21.712400 1.002400 6.371100 17.864900 -0.517700 13.184800 -8.951800 0.081400 -1.840900 -5.066100 0.000000 0.000000 0.000000 24.243800 7.628900 0.890300 -1.652300 -8.100900 23.020900 -0.771900 -0.162200 -16.664900 -0.250400 3.219600 -8.890800 1.610300 0.647800 2.219400 0.396100 0.936300 1.707700 -0.512400 0.500800 0.523800 -7.818100 -11.422200 -10.928300 11.724200 -16.288900 22.953400 3.317700 -6.532200 10.847600 -0.000000 -0.000000 0.000000 3.648900 5.409300 21.914400 6.700300 -11.425000 0.671000 7.580500 58.039000 -27.981500 0.000000 0.000000 0.000000 -7.125000 0.000000 0.000000 -24.802300 56.393500 7.240400 -0.000000 -0.000000 0.000000 -8.065900 -4.241500 19.985000 -24.356300 -35.538700 -7.912700 -22.468600 0.359100 -23.408600 0.000000 0.000000 0.000000 7.125000 0.000000 -0.000000 4.131800 4.933400 3.771200
-2.444697 18.731228 23.266407 -177.421257 9.271916 -173.337694 0.000000 0.000000 0.000000 -6.706377 -11.362122 -20.791866 0.733325 5.447814 15.196319 -0.554342 13.342062 -7.836183 0.137385 -2.372525 -6.536894 0.000000 0.000000 0.000000 24.174683 7.634090 1.417914 -1.607873 -7.996321 22.702995 -0.769148 -0.091825 -16.610173 -0.272024 3.354374 -9.266971 1.558718 0.661403 2.087929 0.280827 0.946837 1.642515 -0.600467 0.503709 0.532056 -7.712184 -11.447441 -10.566125 11.711934 -16.338438 22.978169 3.309444 -6.554453 10.780921 0.000000 0.000000 0.000000 3.846421 5.866146 23.760107 6.558685 -11.190679 0.643322 7.869626 59.323753 -27.453178 0.000000 0.000000 0.000000 -7.125000 0.000000 0.000000 -24.152493 55.973138 6.785126 0.000000 0.000000 0.000000 -8.026820 -4.311010 20.362429 -24.639608 -35.832937 -8.078140 -22.704965 0.234077 -23.209585 0.000000 0.000000 0.000000 7.125000 0.000000 0.000000 3.964316 5.100727 3.605131
-2.452255 18.732990 23.129046 -177.397830 9.820492 -173.132068 0.000000 0.000000 0.000000 -6.132354 -12.213172 -19.892863 0.513036 4.555507 12.651196 -0.594992 13.629595 -6.861201 0.216562 -2.969428 -8.195450 0.000000 0.000000 0.000000 24.002609 7.624735 1.755018 -1.576904 -7.922663 22.479457 -0.770175 0.157036 -16.536435 -0.320789 3.634593 -10.051478 1.454798 0.753112 1.884250 0.175460 1.058899 1.544118 -0.649366 0.556265 0.547871 -7.730641 -11.473082 -10.335654 11.795123 -16.391583 23.155827 3.349173 -6.561015 10.818745 0.000000 0.000000 0.000000 4.003859 6.289265 25.702644 6.433104 -10.982470 0.619194 8.019720 60.683977 -26.878416 0.000000 0.000000 0.000000 -7.125000 0.000000 0.000000 -23.620875 55.480111 6.335006 0.000000 0.000000 0.000000 -8.032062 -4.315527 20.661982 -24.944274 -36.146300 -8.257322 -22.736389 0.336956 -22.560489 0.000000 0.000000 0.000000 7.125000 0.000000 0.000000 3.878659 5.777629 3.476855
-2.461653 18.729195 22.993746 -177.415997 10.316116 -172.899269 0.000000 0.000000 0.000000 -5.819897 -12.458584 -19.065354 0.321148 3.579752 9.903620 -0.577771 13.347017 -5.415056 0.313474 -3.579924 -9.899775 0.000000 0.000000 0.000000 23.792975 7.662859 2.059253 -1.546899 -7.850387 22.260663 -0.762598 0.273225 -16.414109 -0.402548 4.059899 -11.247121 1.227868 0.836316 1.661953 0.132404 1.160357 1.504574 -0.564376 0.603766 0.630289 -7.846337 -11.496683 -10.313947 11.952304 -16.446110 23.332286 3.418475 -6.563518 10.914196 0.000000 0.000000 0.000000 4.028609 6.566060 27.618897 6.331130 -10.813187 0.599873 7.986992 62.212097 -26.649097 0.000000 0.000000 0.000000 -7.125000 0.000000 0.000000 -23.500406 55.265094 6.172339 0.000000 0.000000 0.000000 -8.175125 -4.515636 20.849990 -25.157667 -36.364649 -8.383271 -22.828194 0.312541 -22.247518 0.000000 0.000000 0.000000 7.125000 0.000000 0.000000 3.789010 6.090898 3.372805
-2.472504 18.718084 22.862727 -177.476748 10.678469 -172.707755 0.000000 0.000000 0.000000 -5.825378 -11.873078 -18.046653 0.149502 2.340892 6.453855 -0.492375 12.435521 -3.209346 0.405483 -4.087752 -11.323637 0.000000 0.000000 0.000000 23.593852 7.754261 2.439170 -1.514390 -7.771491 22.022185 -0.743693 0.143491 -16.251573 -0.516353 4.598445 -12.768043 0.886133 0.864593 1.485474 0.159138 1.192630 1.582879 -0.342205 0.618089 0.802363 -7.979528 -11.524519 -10.568497 12.110961 -16.510934 23.425671 3.472284 -6.573618 11.036200 0.000000 0.000000 0.000000 3.919104 6.627812 29.416022 6.246945 -10.673319 0.584159 7.794391 63.852828 -27.025685 0.000000 0.000000 0.000000 -7.125000 0.000000 0.000000 -23.942013 55.569601 6.484262 0.000000 0.000000 0.000000 -8.467103 -5.040768 20.915938 -25.235460 -36.443674 -8.429387 -23.080940 -0.001415 -22.648176 0.000000 0.000000 0.000000 7.125000 0.000000 0.000000 3.672233 5.625346 3.301228
-2.483355 18.708256 22.730233 -177.534935 10.988511 -172.673943 0.000000 0.000000 0.000000 -5.846372 -10.937998 -15.850567 0.013628 0.440065 1.210894 -0.418068 11.999827 -0.403082 0.428129 -4.199015 -11.637296 0.000000 0.000000 0.000000 23.436589 7.802777 2.952238 -1.492137 -7.716764 21.856981 -0.727417 -0.024386 -16.129616 -0.651441 5.159556 -14.364804 0.581517 0.848317 1.467467 0.185873 1.174388 1.806899 -0.141381 0.609912 1.034953 -7.922835 -11.582549 -11.203522 12.074476 -16.621017 23.458539 3.396405 -6.607823 11.177500 0.000000 0.000000 0.000000 3.835755 6.443265 31.015378 6.148656 -10.509923 0.566074 7.584289 65.256235 -28.170082 0.000000 0.000000 0.000000 -7.125000 0.000000 0.000000 -24.935517 56.563576 7.390328 0.000000 0.000000 0.000000 -8.778954 -5.845085 20.876622 -25.236325 -36.444618 -8.429859 -23.324774 -0.477369 -23.549446 0.000000 0.000000 0.000000 7.125000 0.000000 0.000000 3.617191 4.632708 3.319785
-2.496432 18.698355 22.591925 -177.501953 11.247801 -172.729147 0.000000 0.000000 0.000000 -5.660120 -10.766867 -15.613457 0.000508 0.077475 0.212872 -0.337373 10.899822 0.073501 0.402965 -4.074531 -11.286645 0.000000 0.000000 0.000000 23.344079 7.690850 3.530990 -1.471464 -7.665267 21.701971 -0.721836 0.143696 -16.010172 -0.692417 5.318951 -14.820521 0.564691 0.878342 1.557786 0.081669 1.218025 1.873061 -0.239620 0.633679 1.054410 -7.683446 -11.664698 -11.298067 11.960390 -16.766276 23.513445 3.289658 -6.659040 11.198917 0.000000 0.000000 0.000000 4.076522 6.605517 32.286024 6.043978 -10.335545 0.547199 7.791696 66.262448 -26.794420 0.000000 0.000000 0.000000 -7.125000 0.000000 0.000000 -23.804002 55.356511 6.328300 0.000000 0.000000 0.000000 -8.814571 -6.172597 20.740467 -25.394258 -36.604066 -8.523940 -23.219800 -0.636960 -23.659342 0.000000 0.000000 0.000000 7.125000 0.000000 0.000000 3.693877 4.536178 3.397350
-2.510023 18.682498 22.455735 -177.488008 11.386089 -172.785275 0.000000 0.000000 0.000000 -5.503919 -10.858198 -15.712217 0.000000 0.000000 0.000000 -0.261917 9.749332 0.429844 0.490816 -4.468851 -12.403374 0.000000 0.000000 0.000000 23.295807 7.681551 4.187749 -1.449479 -7.610247 21.536387 -0.717125 0.215550 -15.932662 -0.696791 5.335780 -14.868819 0.557610 0.856366 1.656014 -0.028415 1.187601 1.791574 -0.350643 0.617486 0.917771 -7.633398 -11.701252 -10.913892 11.969738 -16.824642 23.585074 3.298650 -6.683495 11.153545 0.000000 0.000000 0.000000 4.303018 7.131827 32.880792 6.005746 -10.271743 0.540299 7.676411 66.495150 -26.026241 0.000000 0.000000 0.000000 -7.125000 0.000000 0.000000 -23.405111 54.637658 5.778309 0.000000 0.000000 0.000000 -8.804892 -6.175486 20.704282 -25.634324 -36.844774 -8.667634 -22.969690 -0.769412 -23.633030 0.000000 0.000000 0.000000 7.125000 0.000000 0.000000 3.845641 4.608834 3.532169
-2.522592 18.667176 22.320808 -177.512239 11.543933 -172.839205 0.000000 0.000000 0.000000 -5.430233 -10.961553 -15.843658 0.000000 0.000000 0.000000 -0.196938 8.732048 0.932241 0.686058 -5.263733 -14.669739 0.000000 0.000000 0.000000 23.245714 7.818650 4.877452 -1.433183 -7.569349 21.413347 -0.710556 0.143996 -15.883395 -0.721288 5.423731 -15.122060 0.453306 0.806188 1.727761 -0.091114 1.115625 1.642885 -0.358659 0.577982 0.723918 -7.835467 -11.687240 -10.273437 12.095873 -16.785795 23.666046 3.419141 -6.680069 11.086344 0.000000 0.000000 0.000000 4.393706 7.835661 33.107906 6.013463 -10.284524 0.541652 7.203326 66.160922 -26.110773 0.000000 0.000000 0.000000 -7.125000 0.000000 0.000000 -23.921563 54.623930 5.915377 0.000000 0.000000 0.000000 -8.854728 -6.029621 20.745766 -25.888673 -37.098302 -8.820472 -22.639313 -0.866781 -23.749596 0.000000 0.000000 0.000000 7.125000 0.000000 0.000000 4.062165 4.546046 3.737650
